# xmcd CD database file
#
# Track frame offsets:
#	180
#	21682
#	39667
#	58692
#	82100
#	98830
#	112529
#	129335
#	143824
#	167517
#	187058
#	208989
#
# Disc length: 3101 seconds
#
# Revision: 2
# Processed by: cddbd v1.5.2PL0 Copyright (c) Steve Scherf et al.
# Submitted via: CDex 1.50
#
DISCID=a90c1b0c
DTITLE=Fruko and Orquesta - Sones y Montunos
DYEAR=1995
DGENRE=Salsa
TTITLE0=Son De La Loma
TTITLE1=El Que Siembra Su Maiz
TTITLE2=Oye Como Va
TTITLE3=Para Que Aprendan
TTITLE4=No Dejes Camino Por Vereda
TTITLE5=Aprende A Querer
TTITLE6=Echale Salsita
TTITLE7=Camina Y Prende el Fogon
TTITLE8=Suavecito
TTITLE9=El Montuno De Hoy
TTITLE10=Bururu Barara
TTITLE11=La Loma Del Tamarindo
EXTD=YEAR: 1995
EXTT0=
EXTT1=
EXTT2=
EXTT3=
EXTT4=
EXTT5=
EXTT6=
EXTT7=
EXTT8=
EXTT9=
EXTT10=
EXTT11=
PLAYORDER=
